<svg id="visual" viewBox="0 0 900 450" width="900" height="450" xmlns="http://www.w3.org/2000/svg" xmlns:xlink="http://www.w3.org/1999/xlink" version="1.1"><path d="M0 82L15 87.3C30 92.7 60 103.3 90 108.7C120 114 150 114 180 113.2C210 112.3 240 110.7 270 111.3C300 112 330 115 360 112.8C390 110.7 420 103.3 450 100.3C480 97.3 510 98.7 540 97.8C570 97 600 94 630 100.8C660 107.7 690 124.3 720 125.8C750 127.3 780 113.7 810 102.3C840 91 870 82 885 77.5L900 73L900 0L885 0C870 0 840 0 810 0C780 0 750 0 720 0C690 0 660 0 630 0C600 0 570 0 540 0C510 0 480 0 450 0C420 0 390 0 360 0C330 0 300 0 270 0C240 0 210 0 180 0C150 0 120 0 90 0C60 0 30 0 15 0L0 0Z" fill="#000000"></path><path d="M0 136L15 142.8C30 149.7 60 163.3 90 169.3C120 175.3 150 173.7 180 169.2C210 164.7 240 157.3 270 157.3C300 157.3 330 164.7 360 165.3C390 166 420 160 450 157.8C480 155.7 510 157.3 540 152.8C570 148.3 600 137.7 630 142.8C660 148 690 169 720 170.5C750 172 780 154 810 142.8C840 131.7 870 127.3 885 125.2L900 123L900 71L885 75.5C870 80 840 89 810 100.3C780 111.7 750 125.3 720 123.8C690 122.3 660 105.7 630 98.8C600 92 570 95 540 95.8C510 96.7 480 95.3 450 98.3C420 101.3 390 108.7 360 110.8C330 113 300 110 270 109.3C240 108.7 210 110.3 180 111.2C150 112 120 112 90 106.7C60 101.3 30 90.7 15 85.3L0 80Z" fill="#000000"></path><path d="M0 177L15 183.7C30 190.3 60 203.7 90 208.2C120 212.7 150 208.3 180 201.7C210 195 240 186 270 186.7C300 187.3 330 197.7 360 200.7C390 203.7 420 199.3 450 196.3C480 193.3 510 191.7 540 187.2C570 182.7 600 175.3 630 182.2C660 189 690 210 720 210C750 210 780 189 810 176.2C840 163.3 870 158.7 885 156.3L900 154L900 121L885 123.2C870 125.3 840 129.7 810 140.8C780 152 750 170 720 168.5C690 167 660 146 630 140.8C600 135.7 570 146.3 540 150.8C510 155.3 480 153.7 450 155.8C420 158 390 164 360 163.3C330 162.7 300 155.3 270 155.3C240 155.3 210 162.7 180 167.2C150 171.7 120 173.3 90 167.3C60 161.3 30 147.7 15 140.8L0 134Z" fill="#1d1d1d"></path><path d="M0 262L15 265C30 268 60 274 90 277C120 280 150 280 180 277.8C210 275.7 240 271.3 270 272.2C300 273 330 279 360 279C390 279 420 273 450 266.2C480 259.3 510 251.7 540 248.7C570 245.7 600 247.3 630 255.7C660 264 690 279 720 276.7C750 274.3 780 254.7 810 243.3C840 232 870 229 885 227.5L900 226L900 152L885 154.3C870 156.7 840 161.3 810 174.2C780 187 750 208 720 208C690 208 660 187 630 180.2C600 173.3 570 180.7 540 185.2C510 189.7 480 191.3 450 194.3C420 197.3 390 201.7 360 198.7C330 195.7 300 185.3 270 184.7C240 184 210 193 180 199.7C150 206.3 120 210.7 90 206.2C60 201.7 30 188.3 15 181.7L0 175Z" fill="#282828"></path><path d="M0 289L15 293.5C30 298 60 307 90 312.3C120 317.7 150 319.3 180 316.3C210 313.3 240 305.7 270 305.7C300 305.7 330 313.3 360 314.2C390 315 420 309 450 303C480 297 510 291 540 285.7C570 280.3 600 275.7 630 283.8C660 292 690 313 720 311.5C750 310 780 286 810 274.8C840 263.7 870 265.3 885 266.2L900 267L900 224L885 225.5C870 227 840 230 810 241.3C780 252.7 750 272.3 720 274.7C690 277 660 262 630 253.7C600 245.3 570 243.7 540 246.7C510 249.7 480 257.3 450 264.2C420 271 390 277 360 277C330 277 300 271 270 270.2C240 269.3 210 273.7 180 275.8C150 278 120 278 90 275C60 272 30 266 15 263L0 260Z" fill="#1d1d1d"></path><path d="M0 334L15 338.5C30 343 60 352 90 355C120 358 150 355 180 353.5C210 352 240 352 270 355.8C300 359.7 330 367.3 360 368.2C390 369 420 363 450 357C480 351 510 345 540 338.2C570 331.3 600 323.7 630 328.2C660 332.7 690 349.3 720 350.2C750 351 780 336 810 328.5C840 321 870 321 885 321L900 321L900 265L885 264.2C870 263.3 840 261.7 810 272.8C780 284 750 308 720 309.5C690 311 660 290 630 281.8C600 273.7 570 278.3 540 283.7C510 289 480 295 450 301C420 307 390 313 360 312.2C330 311.3 300 303.7 270 303.7C240 303.7 210 311.3 180 314.3C150 317.3 120 315.7 90 310.3C60 305 30 296 15 291.5L0 287Z" fill="#000000"></path><path d="M0 451L15 451C30 451 60 451 90 451C120 451 150 451 180 451C210 451 240 451 270 451C300 451 330 451 360 451C390 451 420 451 450 451C480 451 510 451 540 451C570 451 600 451 630 451C660 451 690 451 720 451C750 451 780 451 810 451C840 451 870 451 885 451L900 451L900 319L885 319C870 319 840 319 810 326.5C780 334 750 349 720 348.2C690 347.3 660 330.7 630 326.2C600 321.7 570 329.3 540 336.2C510 343 480 349 450 355C420 361 390 367 360 366.2C330 365.3 300 357.7 270 353.8C240 350 210 350 180 351.5C150 353 120 356 90 353C60 350 30 341 15 336.5L0 332Z" fill="#000000"></path></svg>