<svg id="visual" viewBox="0 0 900 600" width="900" height="600" xmlns="http://www.w3.org/2000/svg" xmlns:xlink="http://www.w3.org/1999/xlink" version="1.1"><rect x="0" y="0" width="900" height="600" fill="#002233"></rect><path d="M0 374L21.5 393C43 412 86 450 128.8 466.3C171.7 482.7 214.3 477.3 257.2 463.2C300 449 343 426 385.8 427.2C428.7 428.3 471.3 453.7 514.2 460.3C557 467 600 455 642.8 447C685.7 439 728.3 435 771.2 435.5C814 436 857 441 878.5 443.5L900 446L900 601L878.5 601C857 601 814 601 771.2 601C728.3 601 685.7 601 642.8 601C600 601 557 601 514.2 601C471.3 601 428.7 601 385.8 601C343 601 300 601 257.2 601C214.3 601 171.7 601 128.8 601C86 601 43 601 21.5 601L0 601Z" fill="#0066FF" stroke-linecap="round" stroke-linejoin="miter"></path></svg>